<svg width="23" height="21" viewBox="0 0 23 21" version="1.1" xmlns="http://www.w3.org/2000/svg" xmlns:xlink="http://www.w3.org/1999/xlink">
<title>rental-car-icon</title>
<desc>Created using Figma</desc>
<g id="Canvas" transform="translate(-10874 -13843)">
<g id="rental-car-icon">
<g id="rental copy">
<use xlink:href="#path0_fill" transform="translate(10874 13843)" fill="#707482"/>
</g>
</g>
</g>
<defs>
<path id="path0_fill" fill-rule="evenodd" d="M 18.8042 13.7686C 17.8909 13.7686 17.165 13.0427 17.165 12.1294C 17.165 11.2161 17.8909 10.4902 18.8042 10.4902C 19.6941 10.4902 20.4434 11.2161 20.4434 12.1294C 20.42 13.0427 19.6941 13.7686 18.8042 13.7686ZM 4.14504 13.7686C 3.2318 13.7686 2.50586 13.0427 2.50586 12.1294C 2.50586 11.2161 3.2318 10.4902 4.14504 10.4902C 5.05832 10.4902 5.78422 11.2161 5.78422 12.1294C 5.78422 13.0427 5.05832 13.7686 4.14504 13.7686ZM 4.96428 1.47461L 18.0075 1.47461L 19.7403 7.35225L 3.23145 7.35225L 4.96428 1.47461ZM 21.684 7.91494C 21.5669 7.75099 21.4264 7.61048 21.3093 7.51682L 19.3892 1.03036C 19.2018 0.421548 18.6398 0 18.0075 0L 4.91754 0C 4.28529 0 3.69987 0.421511 3.53596 1.03036L 1.63918 7.51682C 1.5221 7.61048 1.40501 7.75099 1.26453 7.91494C 0.421511 8.94527 0 10.2566 0 11.5913L 0 16.1577C 0 16.5557 0.327858 16.8836 0.7259 16.8836L 2.69294 16.8836L 2.69294 19.5062C 2.69294 20.0917 3.16127 20.56 3.7467 20.56L 4.56629 20.56C 5.15171 20.56 5.62004 20.0917 5.62004 19.5062L 5.62004 16.8836L 17.3753 16.8836L 17.3753 19.5062C 17.3753 20.0917 17.8436 20.56 18.4291 20.56L 19.2487 20.56C 19.8341 20.56 20.3024 20.0917 20.3024 19.5062L 20.3024 16.8836L 21.965 16.8836C 22.527 16.8836 22.9954 16.4153 22.9954 15.8532L 22.9954 11.5679C 22.9485 10.2566 22.527 8.94527 21.684 7.91494Z"/>
</defs>
</svg>
